<svg xmlns="http://www.w3.org/2000/svg" viewBox="0 0 96 96" role="img" aria-labelledby="title">
  <title id="title">Natto ingredient icon</title>
  <circle cx="48" cy="48" r="46" fill="#fff7ed"/>
  <path d="M20 35h56l-5 43c-1 5-5 8-10 8H35c-5 0-9-3-10-8l-5-43Z" fill="#fef3c7" stroke="#f59e0b" stroke-width="4" stroke-linejoin="round"/>
  <path d="M17 30c3-7 12-11 24-11h16c12 0 21 4 24 11H17Z" fill="#fed7aa" stroke="#f59e0b" stroke-width="4" stroke-linejoin="round"/>
  <circle cx="38" cy="55" r="7" fill="#92400e"/>
  <circle cx="52" cy="51" r="7" fill="#a16207"/>
  <circle cx="57" cy="65" r="7" fill="#854d0e"/>
  <path d="M35 55c10-8 23-5 32 8M44 67c10-5 20-4 26 3" fill="none" stroke="#fbbf24" stroke-width="3" stroke-linecap="round"/>
</svg>
